<svg xmlns="http://www.w3.org/2000/svg" version="1.1" xmlns:xlink="http://www.w3.org/1999/xlink" xmlns:svgjs="http://svgjs.com/svgjs" width="1000" height="1000"><rect width="1000" height="1000" rx="100" ry="100" fill="#2c3333"></rect><g transform="matrix(1.5,0,0,1.5,0,0.50054931640625)"><svg xmlns="http://www.w3.org/2000/svg" version="1.1" xmlns:xlink="http://www.w3.org/1999/xlink" xmlns:svgjs="http://svgjs.com/svgjs" width="600" height="600"><svg fill="#F1F6F9" height="600" preserveAspectRatio="xMidYMid meet" width="600" xmlns="http://www.w3.org/2000/svg"><path d="m280-1.00109c0 .7-20.7 1-60 1h-60v20 20h-20-20v20 20h-20-20v40 40h-20-20v20 20h-20-20v120 120h-20-20v20 20h-20-20v20 20h-20-20v60 60h20 20v20 20h20 20v20 20h-20-20v20 20h20 20v20 20h420.00001 420.00001v-20-20h20 20v-20-20h20 20v-20-20h20 20v-80-80h-20-20v-20-20h-20-20v-20-20h-20-20v-20-20h-20-20v-120-120h-20-20v-40-40h-20-20v-20-20h-20-20v-21-21h-20c-12.7 0-20 .4-20 1s-7.3 1-20 1-20-.4-20-1-7.3-1-20-1-20 .4-20 1c0 .7-20.7 1-60 1s-60-.3-60-1c0-.6-7.3-1-20-1s-20 .4-20 1-7.3 1-20 1-20-.4-20-1-7.3-1-20-1-20 .4-20 1h-.00002zm360.00001 61v20h20 20v40 40h20 20v220 220h20 20v-80-80h20 20v20 20h20 20v20 20h20 20v80 80h-20-20v20 20h-20-20v20 20h-140-140v-20-20h60 60v-20-20h-80-80v-80-80h-20-20v100 100h20 20v20 20h-40-40v-140-140h-20-20v140 140h-40-40v-20-20h20 20v-100-100h-20-20v80 80h-60-60v20 20h40 40v20 20h-140-140v-20-20h60 60v-20-20h-60-60v-20-20h-20-20v-60-60h20 20v-20-20h20 20v40 40h20 20v-180-180h20 20v-20-20h20 20v-40-40h20 20v-20-20h240 240z"></path><path d="m120 179.99891v20h60 60v-20-20h-60-60z"></path><path d="m360 179.99891v20h60 60v-20-20h-60-60z"></path><path d="m80 299.99892v20h260 260v-20-20h-260-260z"></path><path d="m240 499.99892v20h20 20v-20-20h-20-20z"></path><path d="m480 499.99892v20h20 20v-20-20h-20-20z"></path><path d="m40 579.99892v20h20 20v20 20h20 20v20 20h20 20v-20-20h-20-20v-20-20h-20-20v-20-20h-20-20z"></path><path d="m680.00001 619.99892v20h-20-20v20 20h20 20v20 20h60 60v-20-20h-60-60v-20-20h20 20v-20-20h-20-20z"></path></svg></svg></g></svg>